<svg width="44" height="44" viewBox="0 0 44 44" fill="none" xmlns="http://www.w3.org/2000/svg">
<rect width="44" height="44" rx="5" fill="#002F6C"/>
<path fill-rule="evenodd" clip-rule="evenodd" d="M19.4896 6.18816C17.3038 6.52272 14.9466 7.45849 12.986 8.76985C11.7808 9.57605 9.57647 11.7804 8.77027 12.9856C5.07658 18.5078 5.07658 25.4734 8.77027 30.9957C9.11546 31.5116 9.99408 32.53 10.7229 33.2588C12.6921 35.228 14.5114 36.3577 17.0559 37.1911C21.7393 38.7254 26.8219 38.0035 30.9961 35.2114C32.2013 34.4052 34.4056 32.2008 35.2118 30.9957C36.9931 28.3325 38 25.0806 38 21.9906C38 19.755 37.3353 16.8976 36.3656 14.9653C35.2121 12.6663 32.9923 10.1052 30.9961 8.76985C27.5745 6.4812 23.519 5.57131 19.4896 6.18816ZM19.2334 7.29327C14.1099 8.26194 9.70792 12.0306 7.9358 16.9656C7.27881 18.7947 7.17025 19.5077 7.17025 21.9906C7.17025 24.4735 7.27881 25.1865 7.9358 27.0157C9.187 30.4999 11.8206 33.528 15.07 35.2185C16.377 35.8985 18.3987 36.5669 19.7219 36.7568C21.1935 36.9678 24.2756 36.8408 25.493 36.519C28.4058 35.7492 30.4039 34.6051 32.5047 32.5043C34.203 30.8059 35.1837 29.3156 35.9634 27.2479C36.5758 25.6238 36.7646 24.633 36.8372 22.6606C36.921 20.3863 36.7694 19.1644 36.1847 17.4042C35.4097 15.0705 34.4264 13.433 32.7586 11.6987C30.6808 9.53816 28.4876 8.25869 25.493 7.45999C24.2401 7.12581 20.628 7.02963 19.2334 7.29327ZM20.1094 8.24531C19.0079 8.38789 17.2754 8.90092 16.1678 9.41271C14.6561 10.1111 13.4877 10.9484 12.1657 12.2806C10.2847 14.1761 9.23453 16.0303 8.513 18.7295C8.23097 19.7848 8.19295 20.172 8.19295 21.9906C8.19295 23.8093 8.23097 24.1965 8.513 25.2517C9.17862 27.7417 10.2211 29.6689 11.8292 31.3825C15.8816 35.7007 21.9571 37.0188 27.3877 34.758C32.8883 32.4681 36.4022 26.5582 35.7784 20.6461C34.949 12.7871 27.932 7.23362 20.1094 8.24531ZM19.8223 9.36456C17.7747 9.70813 15.288 10.8671 13.7606 12.1898L13.347 12.5478L15.2329 14.4313L17.1188 16.3147L17.6734 15.9204C18.4363 15.3779 19.5958 14.8755 20.4572 14.7141C20.8537 14.6398 21.2485 14.5598 21.3344 14.5366C21.4532 14.5044 21.4908 13.8622 21.4908 11.8638V9.23349L20.9592 9.24824C20.6668 9.25625 20.1553 9.30865 19.8223 9.36456ZM22.4913 11.8638C22.4913 13.8622 22.5288 14.5044 22.6477 14.5366C22.7337 14.5598 23.1417 14.6415 23.5544 14.7179C23.9671 14.7945 24.7651 15.084 25.3277 15.3613L26.3506 15.8654L27.0786 15.4264C27.4791 15.1849 27.8922 14.9872 27.9967 14.9871C28.1011 14.9868 28.7386 14.4391 29.4133 13.7699L30.64 12.5531L30.099 12.0892C28.3566 10.596 24.9682 9.23349 22.9969 9.23349H22.4913V11.8638ZM12.0411 13.9402C10.5215 15.7947 9.2339 19.0258 9.2339 20.9848V21.4903L11.704 21.4885C13.0625 21.4873 14.244 21.4422 14.3294 21.3879C14.4147 21.3338 14.5938 20.8622 14.7272 20.3401C14.9941 19.2967 15.5478 18.108 16.0386 17.5246L16.3549 17.1488L14.4638 15.2547C13.4236 14.2131 12.5599 13.3608 12.5443 13.3608C12.5286 13.3608 12.3022 13.6216 12.0411 13.9402ZM30.1519 14.6049C29.5155 15.2692 28.9948 15.8942 28.9946 15.9938C28.9945 16.0934 28.7946 16.5062 28.5503 16.9112L28.1065 17.6473L28.5542 18.4994C28.8005 18.9681 29.1135 19.7875 29.2497 20.3204C29.3861 20.8534 29.5674 21.3338 29.6527 21.3879C29.7381 21.4422 30.9278 21.4873 32.2964 21.4885L34.7848 21.4903L34.7079 20.5798C34.5409 18.6039 33.5035 15.9938 32.2151 14.3083C31.8511 13.8319 31.4981 13.4321 31.431 13.4196C31.3638 13.4072 30.7882 13.9405 30.1519 14.6049ZM20.4277 15.788C19.3358 16.0581 18.3461 16.6305 17.4885 17.4881C16.5756 18.401 16.096 19.2744 15.7524 20.6492C15.2972 22.4709 15.2548 22.4909 11.8551 22.4909H9.19938L9.28493 23.4348C9.5317 26.1582 10.8708 28.9104 12.971 31.0107C14.6102 32.6497 16.24 33.6154 18.5786 34.3332C19.6032 34.6476 19.8332 34.6703 21.991 34.6703C24.1489 34.6703 24.3789 34.6476 25.4035 34.3332C27.7421 33.6154 29.3719 32.6497 31.0111 31.0107C33.1113 28.9104 34.4504 26.1582 34.6972 23.4348L34.7827 22.4909H32.127C28.7288 22.4909 28.6847 22.4701 28.2309 20.6543C28.1067 20.1571 27.887 19.5187 27.7426 19.2358L27.4801 18.7214L26.003 20.9548C23.8475 24.214 23.2734 24.7038 21.7394 24.5927C20.4243 24.4977 19.484 23.558 19.389 22.2439C19.2779 20.708 19.7669 20.1348 23.0269 17.9786L25.2602 16.5016L24.7551 16.2438C23.5732 15.6408 21.7844 15.4525 20.4277 15.788ZM25.2412 17.8102C21.3749 20.2309 20.3651 21.101 20.3651 22.0115C20.3651 22.4838 20.7864 23.1403 21.2484 23.388C22.1518 23.8726 22.8434 23.575 23.8153 22.2835C24.6285 21.2031 27.7196 16.3625 27.5964 16.3625C27.5727 16.3625 26.5128 17.014 25.2412 17.8102ZM16.82 26.4718C16.6435 26.6667 16.613 27.0326 16.613 28.9538C16.613 30.9779 16.6363 31.228 16.8418 31.414C17.3072 31.8353 17.7387 31.4961 17.7387 30.7093V30.1906L18.4746 30.9187C19.0505 31.4887 19.2666 31.6293 19.4688 31.5651C19.7832 31.4653 19.9225 31.0847 19.7557 30.7815C19.688 30.6585 19.2639 30.1948 18.8134 29.7512L17.9942 28.9445L18.9295 27.9834C19.8977 26.9883 20.0012 26.7724 19.6684 26.4395C19.3646 26.1358 19.2374 26.1905 18.4614 26.9583L17.7387 27.6734V27.1548C17.7387 26.3571 17.2515 25.9949 16.82 26.4718ZM21.0601 26.521C20.9023 26.7462 20.8654 27.2038 20.8654 28.932C20.8654 30.6602 20.9023 31.1179 21.0601 31.343C21.2894 31.6703 21.5228 31.6962 21.7946 31.4245C21.9354 31.2836 21.991 30.9824 21.991 30.3614V29.4948H22.3786C23.7129 29.4948 24.5367 28.1207 23.8638 27.0172C23.5427 26.4901 22.9482 26.243 22.0022 26.243C21.3717 26.243 21.2244 26.2864 21.0601 26.521ZM25.3929 26.3931C25.2866 26.4994 25.2429 27.2429 25.2429 28.9418C25.2429 30.9418 25.2746 31.3666 25.4342 31.4991C25.5804 31.6204 25.6982 31.6246 25.9345 31.517L26.2434 31.3762V28.9391C26.2434 26.6576 26.2279 26.4936 26.0015 26.3724C25.6895 26.2055 25.5767 26.2094 25.3929 26.3931ZM21.991 27.8689C21.991 28.3563 22.0022 28.3692 22.4244 28.3692C22.7297 28.3692 22.8973 28.2953 22.9916 28.1191C23.2077 27.7153 22.9456 27.3686 22.4244 27.3686C22.0022 27.3686 21.991 27.3815 21.991 27.8689Z" fill="white"/>
</svg>
